<?xml version="1.0" encoding="iso-8859-1"?>
<!-- Generator: Adobe Illustrator 19.0.0, SVG Export Plug-In . SVG Version: 6.00 Build 0)  -->
<svg xmlns="http://www.w3.org/2000/svg" xmlns:xlink="http://www.w3.org/1999/xlink" version="1.1" id="Layer_1" x="0px" y="0px" viewBox="0 0 512 512" style="enable-background:new 0 0 512 512;" xml:space="preserve" width="512px" height="512px">
<g>
	<g>
		<path d="M502.965,334.383c-1.552-1.823-34.354-39.843-81.427-57.951c20.444-45.971,16.815-95.833,16.596-98.571l-1.114-13.888    l-13.888-1.113c-2.387-0.191-52.467-3.882-98.558,16.6c-18.05-46.962-55.874-79.654-57.965-81.434l-10.607-9.031l-10.607,9.031    c-2.091,1.78-39.916,34.472-57.965,81.434c-46.091-20.481-96.17-16.79-98.558-16.6l-13.888,1.113l-1.114,13.888    c-0.219,2.738-3.848,52.601,16.596,98.571C43.391,294.54,10.589,332.56,9.037,334.383L0,344.991L9.032,355.6    c2.344,2.752,58.22,67.406,129.712,67.406c52.529,0,96.627-34.904,117.255-54.512c20.628,19.608,64.726,54.512,117.255,54.512    c71.493,0,127.367-64.653,129.712-67.406L512,344.991L502.965,334.383z M212.041,362.58    c-17.397,12.637-44.237,27.702-73.296,27.702c-40.758,0-77.241-29.078-94.414-45.29c12.592-11.889,35.556-30.67,63.001-39.859    c3.221,4.204,6.74,8.259,10.591,12.112c28.522,28.521,68.07,38.97,97.778,42.613C214.512,360.763,213.293,361.672,212.041,362.58z     M141.063,294.107c-28.821-28.821-34.057-75.18-34.736-98.787c17.31,0.496,46.829,3.455,72.735,16.364    c-0.695,5.25-1.074,10.606-1.074,16.055c0,40.355,20.599,75.73,39.038,99.314C192.938,323.821,162.339,315.382,141.063,294.107z     M255.978,322.174c-5.019-5.304-11.277-12.481-17.565-21.14c-12.637-17.398-27.702-44.237-27.702-73.296    c0-40.78,29.105-77.276,45.313-94.437c5.018,5.304,11.277,12.481,17.565,21.141c12.637,17.397,27.702,44.237,27.702,73.296    C301.291,268.517,272.186,305.013,255.978,322.174z M334.013,227.738c0-5.448-0.38-10.804-1.074-16.054    c25.928-12.921,55.475-15.874,72.772-16.367c-0.629,23.564-5.802,69.819-34.773,98.789c-21.164,21.163-51.78,29.609-75.903,32.872    C313.458,303.393,334.013,268.05,334.013,227.738z M446.551,362.58c-17.397,12.637-44.237,27.702-73.296,27.702    c-29.93,0-57.552-15.679-76.917-30.43c29.705-3.649,69.231-14.101,97.737-42.608c3.853-3.853,7.371-7.908,10.591-12.112    c27.467,9.197,50.447,27.998,63.026,39.881C462.387,350.031,455.21,356.291,446.551,362.58z" fill="#FFFFFF"/>
	</g>
</g>
<g>
</g>
<g>
</g>
<g>
</g>
<g>
</g>
<g>
</g>
<g>
</g>
<g>
</g>
<g>
</g>
<g>
</g>
<g>
</g>
<g>
</g>
<g>
</g>
<g>
</g>
<g>
</g>
<g>
</g>
</svg>
